<svg version="1.1" id="Layer_1" xmlns="http://www.w3.org/2000/svg" xmlns:xlink="http://www.w3.org/1999/xlink" x="0px" y="0px"
	 width="100%" viewBox="0 0 1000 1000" enable-background="new 0 0 1000 1000" xml:space="preserve">
<path fill="#FFFFFE" opacity="1.000000" stroke="none" 
	d="
M556.000000,1001.000000 
	C370.666656,1001.000000 185.833328,1001.000000 1.000000,1001.000000 
	C1.000000,667.666687 1.000000,334.333344 1.000000,1.000000 
	C334.333344,1.000000 667.666687,1.000000 1001.000000,1.000000 
	C1001.000000,334.333344 1001.000000,667.666687 1001.000000,1001.000000 
	C852.833313,1001.000000 704.666687,1001.000000 556.000000,1001.000000 
M403.158997,637.801025 
	C379.012848,649.762390 354.829865,661.650208 330.731567,673.707214 
	C309.183197,684.488342 287.753357,695.506348 266.215485,706.308777 
	C260.303314,709.273987 259.678772,708.853821 259.738525,702.382263 
	C259.910553,683.759949 260.334534,665.139526 260.438171,646.517151 
	C260.869324,569.049011 261.234863,491.580444 261.587708,414.111877 
	C261.678040,394.282959 261.605377,374.453339 261.658264,354.624207 
	C261.739624,324.127594 261.817596,293.630798 262.005615,263.134796 
	C262.051056,255.762848 263.278809,255.118744 269.858551,258.537689 
	C285.671783,266.754578 301.436676,275.064545 317.250671,283.279938 
	C331.252106,290.553802 345.838196,295.754578 361.831543,296.514343 
	C381.215149,297.435272 398.013336,290.682251 413.556030,279.872772 
	C417.579956,277.074280 417.580780,275.151642 413.246124,272.642792 
	C408.640747,269.977264 403.910492,267.493774 399.090332,265.239563 
	C385.977020,259.106995 372.710419,253.298645 359.648956,247.059631 
	C345.687347,240.390640 331.922424,233.311279 318.014801,226.527542 
	C294.979828,215.291718 271.887299,204.173920 248.843048,192.957016 
	C237.183853,187.281860 225.554459,181.544205 213.959061,175.739944 
	C209.806427,173.661285 208.478210,175.518646 208.332687,179.372192 
	C208.250946,181.536423 208.214874,183.703705 208.216446,185.869568 
	C208.233871,209.866959 208.357025,233.864685 208.269577,257.861664 
	C208.060806,315.153534 207.783295,372.445160 207.478317,429.736603 
	C207.207947,480.527191 206.723785,531.317017 206.585464,582.107849 
	C206.400757,649.936096 206.443100,717.765015 206.432785,785.593689 
	C206.431473,794.177673 208.716141,795.352173 216.304688,791.382019 
	C228.830338,784.828857 241.452682,778.460571 254.025177,771.996765 
	C272.537842,762.479065 290.924957,752.708069 309.581757,743.482178 
	C330.613098,733.082031 351.921692,723.244202 373.042725,713.023376 
	C409.757294,695.256531 446.505371,677.555603 483.077881,659.499878 
	C511.740784,645.349121 540.404236,631.162720 568.604675,616.124329 
	C588.837830,605.334656 608.683899,593.701660 628.000732,581.347412 
	C644.221619,570.973083 659.725220,559.353333 672.428101,544.573853 
	C682.588745,532.752075 691.643677,520.050049 696.260742,505.062897 
	C702.443420,484.993713 704.536133,464.334198 701.567078,443.389740 
	C699.749939,430.570679 698.126038,417.693237 695.518677,405.026581 
	C693.216614,393.842834 686.575806,386.127533 674.886658,383.001160 
	C661.524353,379.427246 648.516296,381.681335 636.089111,385.774414 
	C621.124084,390.703278 606.383240,396.682526 592.220764,403.591522 
	C571.006836,413.940460 550.334473,425.407990 529.518127,436.560913 
	C505.311157,449.530457 481.433594,463.138184 456.964539,475.587372 
	C439.042297,484.705780 420.628967,492.974213 401.996735,500.544006 
	C388.071350,506.201599 378.466736,501.151398 375.829285,484.574951 
	C374.934418,478.950653 375.140625,472.974518 375.892334,467.298035 
	C378.150421,450.246277 383.998260,434.917145 399.654724,425.495758 
	C408.340240,420.269196 417.306335,415.492096 426.274872,410.756531 
	C442.896729,401.979919 459.542877,393.243774 476.308685,384.746796 
	C495.459961,375.040833 514.809509,365.726288 533.967651,356.033539 
	C552.059753,346.880188 569.974060,337.375763 588.042297,328.174438 
	C606.585754,318.731079 625.260132,309.544586 643.806946,300.107605 
	C671.385864,286.074921 698.888000,271.891541 726.457703,257.840546 
	C732.765076,254.625961 734.005188,255.473923 734.126221,262.500183 
	C734.561523,287.768707 734.950745,313.038177 735.453674,338.305359 
	C735.940674,362.774933 736.662842,387.240234 737.070374,411.710938 
	C737.591736,443.017303 737.874695,474.327606 738.313843,505.635468 
	C738.526367,520.787292 738.877014,535.937012 739.136841,551.088257 
	C739.836731,591.887085 740.568542,632.685425 741.196045,673.485413 
	C741.631409,701.794800 741.981934,730.106018 742.217529,758.417664 
	C742.273621,765.150208 744.522400,770.738586 749.239990,775.427124 
	C759.976562,786.097473 773.565247,791.482849 787.653381,795.707031 
	C795.758118,798.137024 796.657349,797.251770 796.607056,788.856201 
	C796.309570,739.226990 795.869995,689.598511 795.641235,639.969055 
	C795.453125,599.164551 795.632324,558.357910 795.358215,517.554260 
	C795.252136,501.752625 794.007996,485.959381 793.867065,470.157104 
	C793.391602,416.841553 793.110718,363.523987 792.886108,310.206635 
	C792.697266,265.376801 792.705261,220.546173 792.590149,175.715973 
	C792.569824,167.808487 791.113647,166.906631 784.189636,170.256866 
	C762.778015,180.617111 741.374756,190.994614 719.963623,201.355850 
	C698.841309,211.577286 677.726990,221.815353 656.584717,231.995300 
	C624.965820,247.219589 593.247253,262.239105 561.715942,277.642181 
	C528.695190,293.772858 495.622498,309.822876 462.987335,326.709747 
	C433.747101,341.839996 404.852936,357.676666 376.228210,373.944458 
	C359.277771,383.577667 343.627533,395.301483 330.346558,409.782867 
	C319.788910,421.294769 311.033844,434.032440 306.555573,449.203247 
	C299.472046,473.199493 299.224915,497.886353 300.664795,522.511719 
	C301.357422,534.357788 303.996216,546.166870 306.612946,557.799438 
	C308.756561,567.328796 316.171387,572.463440 325.363556,573.338684 
	C333.214142,574.086304 341.516937,573.922791 349.173004,572.189331 
	C377.396484,565.798828 403.969299,554.573181 429.818085,541.850037 
	C454.573669,529.665039 478.815582,516.437683 503.305725,503.711731 
	C524.253052,492.826752 545.009460,481.539703 566.275330,471.314423 
	C580.595276,464.428955 595.501526,458.660217 610.447205,453.220825 
	C618.164856,450.411957 622.323853,454.084839 623.375977,462.285950 
	C625.413879,478.170502 624.298218,493.879639 619.968933,509.204803 
	C616.350952,522.011719 609.807922,533.077271 597.464111,539.643127 
	C586.602783,545.420410 575.826233,551.362427 564.877319,556.968201 
	C542.540222,568.404663 520.164490,579.768311 497.709076,590.970459 
	C466.459869,606.559509 435.122955,621.972717 403.158997,637.801025 
z"/>
<path fill="#F0B04F" opacity="1.000000" stroke="none" 
	d="
M403.491272,637.631104 
	C435.122955,621.972717 466.459869,606.559509 497.709076,590.970459 
	C520.164490,579.768311 542.540222,568.404663 564.877319,556.968201 
	C575.826233,551.362427 586.602783,545.420410 597.464111,539.643127 
	C609.807922,533.077271 616.350952,522.011719 619.968933,509.204803 
	C624.298218,493.879639 625.413879,478.170502 623.375977,462.285950 
	C622.323853,454.084839 618.164856,450.411957 610.447205,453.220825 
	C595.501526,458.660217 580.595276,464.428955 566.275330,471.314423 
	C545.009460,481.539703 524.253052,492.826752 503.305725,503.711731 
	C478.815582,516.437683 454.573669,529.665039 429.818085,541.850037 
	C403.969299,554.573181 377.396484,565.798828 349.173004,572.189331 
	C341.516937,573.922791 333.214142,574.086304 325.363556,573.338684 
	C316.171387,572.463440 308.756561,567.328796 306.612946,557.799438 
	C303.996216,546.166870 301.357422,534.357788 300.664795,522.511719 
	C299.224915,497.886353 299.472046,473.199493 306.555573,449.203247 
	C311.033844,434.032440 319.788910,421.294769 330.346558,409.782867 
	C343.627533,395.301483 359.277771,383.577667 376.228210,373.944458 
	C404.852936,357.676666 433.747101,341.839996 462.987335,326.709747 
	C495.622498,309.822876 528.695190,293.772858 561.715942,277.642181 
	C593.247253,262.239105 624.965820,247.219589 656.584717,231.995300 
	C677.726990,221.815353 698.841309,211.577286 719.963623,201.355850 
	C741.374756,190.994614 762.778015,180.617111 784.189636,170.256866 
	C791.113647,166.906631 792.569824,167.808487 792.590149,175.715973 
	C792.705261,220.546173 792.697266,265.376801 792.886108,310.206635 
	C793.110718,363.523987 793.391602,416.841553 793.867065,470.157104 
	C794.007996,485.959381 795.252136,501.752625 795.358215,517.554260 
	C795.632324,558.357910 795.453125,599.164551 795.641235,639.969055 
	C795.869995,689.598511 796.309570,739.226990 796.607056,788.856201 
	C796.657349,797.251770 795.758118,798.137024 787.653381,795.707031 
	C773.565247,791.482849 759.976562,786.097473 749.239990,775.427124 
	C744.522400,770.738586 742.273621,765.150208 742.217529,758.417664 
	C741.981934,730.106018 741.631409,701.794800 741.196045,673.485413 
	C740.568542,632.685425 739.836731,591.887085 739.136841,551.088257 
	C738.877014,535.937012 738.526367,520.787292 738.313843,505.635468 
	C737.874695,474.327606 737.591736,443.017303 737.070374,411.710938 
	C736.662842,387.240234 735.940674,362.774933 735.453674,338.305359 
	C734.950745,313.038177 734.561523,287.768707 734.126221,262.500183 
	C734.005188,255.473923 732.765076,254.625961 726.457703,257.840546 
	C698.888000,271.891541 671.385864,286.074921 643.806946,300.107605 
	C625.260132,309.544586 606.585754,318.731079 588.042297,328.174438 
	C569.974060,337.375763 552.059753,346.880188 533.967651,356.033539 
	C514.809509,365.726288 495.459961,375.040833 476.308685,384.746796 
	C459.542877,393.243774 442.896729,401.979919 426.274872,410.756531 
	C417.306335,415.492096 408.340240,420.269196 399.654724,425.495758 
	C383.998260,434.917145 378.150421,450.246277 375.892334,467.298035 
	C375.140625,472.974518 374.934418,478.950653 375.829285,484.574951 
	C378.466736,501.151398 388.071350,506.201599 401.996735,500.544006 
	C420.628967,492.974213 439.042297,484.705780 456.964539,475.587372 
	C481.433594,463.138184 505.311157,449.530457 529.518127,436.560913 
	C550.334473,425.407990 571.006836,413.940460 592.220764,403.591522 
	C606.383240,396.682526 621.124084,390.703278 636.089111,385.774414 
	C648.516296,381.681335 661.524353,379.427246 674.886658,383.001160 
	C686.575806,386.127533 693.216614,393.842834 695.518677,405.026581 
	C698.126038,417.693237 699.749939,430.570679 701.567078,443.389740 
	C704.536133,464.334198 702.443420,484.993713 696.260742,505.062897 
	C691.643677,520.050049 682.588745,532.752075 672.428101,544.573853 
	C659.725220,559.353333 644.221619,570.973083 628.000732,581.347412 
	C608.683899,593.701660 588.837830,605.334656 568.604675,616.124329 
	C540.404236,631.162720 511.740784,645.349121 483.077881,659.499878 
	C446.505371,677.555603 409.757294,695.256531 373.042725,713.023376 
	C351.921692,723.244202 330.613098,733.082031 309.581757,743.482178 
	C290.924957,752.708069 272.537842,762.479065 254.025177,771.996765 
	C241.452682,778.460571 228.830338,784.828857 216.304688,791.382019 
	C208.716141,795.352173 206.431473,794.177673 206.432785,785.593689 
	C206.443100,717.765015 206.400757,649.936096 206.585464,582.107849 
	C206.723785,531.317017 207.207947,480.527191 207.478317,429.736603 
	C207.783295,372.445160 208.060806,315.153534 208.269577,257.861664 
	C208.357025,233.864685 208.233871,209.866959 208.216446,185.869568 
	C208.214874,183.703705 208.250946,181.536423 208.332687,179.372192 
	C208.478210,175.518646 209.806427,173.661285 213.959061,175.739944 
	C225.554459,181.544205 237.183853,187.281860 248.843048,192.957016 
	C271.887299,204.173920 294.979828,215.291718 318.014801,226.527542 
	C331.922424,233.311279 345.687347,240.390640 359.648956,247.059631 
	C372.710419,253.298645 385.977020,259.106995 399.090332,265.239563 
	C403.910492,267.493774 408.640747,269.977264 413.246124,272.642792 
	C417.580780,275.151642 417.579956,277.074280 413.556030,279.872772 
	C398.013336,290.682251 381.215149,297.435272 361.831543,296.514343 
	C345.838196,295.754578 331.252106,290.553802 317.250671,283.279938 
	C301.436676,275.064545 285.671783,266.754578 269.858551,258.537689 
	C263.278809,255.118744 262.051056,255.762848 262.005615,263.134796 
	C261.817596,293.630798 261.739624,324.127594 261.658264,354.624207 
	C261.605377,374.453339 261.678040,394.282959 261.587708,414.111877 
	C261.234863,491.580444 260.869324,569.049011 260.438171,646.517151 
	C260.334534,665.139526 259.910553,683.759949 259.738525,702.382263 
	C259.678772,708.853821 260.303314,709.273987 266.215485,706.308777 
	C287.753357,695.506348 309.183197,684.488342 330.731567,673.707214 
	C354.829865,661.650208 379.012848,649.762390 403.491272,637.631104 
M538.950989,350.478699 
	C556.834106,341.390167 574.739746,332.345581 592.594421,323.201508 
	C613.127991,312.685364 633.567566,301.984741 654.137390,291.540344 
	C678.733704,279.051422 703.417358,266.734467 728.080444,254.377472 
	C733.192078,251.816391 735.696472,253.134842 735.962769,258.647461 
	C736.683960,273.575775 737.350586,288.507751 737.882385,303.443878 
	C738.337891,316.237701 738.722534,329.037415 738.883301,341.837738 
	C739.300842,375.070770 739.525879,408.306244 739.932617,441.539429 
	C740.136169,458.173981 740.578979,474.805542 740.894958,491.438782 
	C741.245667,509.903442 741.594360,528.368225 741.908569,546.833496 
	C742.259705,567.466064 742.544861,588.099731 742.908264,608.732056 
	C743.206116,625.638672 743.677979,642.542725 743.893433,659.450256 
	C744.309387,692.082336 744.706177,724.715454 744.868286,757.349426 
	C744.911133,765.971680 748.707520,772.198486 755.242188,777.197998 
	C764.581421,784.343140 774.957336,789.405884 786.234680,792.700134 
	C793.757385,794.897644 794.111938,794.723022 794.039490,786.713684 
	C793.744202,754.080261 793.369141,721.447449 793.093506,688.813904 
	C792.726990,645.415283 792.468140,602.015747 792.081482,558.617310 
	C791.823425,529.651550 791.284790,500.687866 791.114319,471.721832 
	C790.694580,400.422485 790.386536,329.122406 790.093384,257.822388 
	C789.984436,231.323868 790.042053,204.824677 790.023987,178.325790 
	C790.022705,176.375809 790.023804,174.425812 790.023804,171.825302 
	C787.868896,172.148102 786.316467,172.035461 785.094238,172.616867 
	C772.191467,178.754929 759.329895,184.979889 746.479126,191.226547 
	C716.612061,205.744751 686.779175,220.333572 656.889221,234.804535 
	C638.346130,243.782028 619.695190,252.536713 601.144775,261.499207 
	C579.628662,271.894592 558.170349,282.409424 536.685669,292.869965 
	C518.785645,301.585236 500.762268,310.057404 483.013702,319.070801 
	C460.687317,330.408905 438.296356,341.674072 416.470642,353.927917 
	C396.243042,365.284515 376.459564,377.494812 356.987427,390.111481 
	C344.712891,398.064575 334.104309,408.251282 325.041992,419.858246 
	C314.386597,433.505585 308.190735,448.887329 305.601044,466.108032 
	C301.282410,494.825897 301.511383,523.351379 307.145691,551.801941 
	C309.803375,565.221985 317.303253,570.687561 330.907166,571.217529 
	C343.845856,571.721558 355.955170,568.425720 367.974457,564.535339 
	C396.180756,555.405457 422.962463,542.877014 449.246735,529.333740 
	C475.336456,515.890686 501.014404,501.649384 527.077820,488.153778 
	C545.219421,478.760101 563.592834,469.791138 582.089661,461.116302 
	C590.921143,456.974426 600.118286,453.426239 609.446228,450.580780 
	C618.813416,447.723297 624.846497,451.531006 625.630493,461.226013 
	C626.507568,472.072052 626.159363,483.063843 625.663696,493.961243 
	C625.160278,505.028198 621.644104,515.426086 616.218262,525.064514 
	C609.971558,536.161072 599.450378,542.444214 588.639465,547.999817 
	C558.550842,563.461914 528.338562,578.685608 498.088989,593.831543 
	C473.880035,605.952820 449.515442,617.762939 425.273071,629.818115 
	C392.998810,645.867249 360.750488,661.968994 328.540558,678.146729 
	C307.748566,688.589722 287.033966,699.187073 266.309937,709.764709 
	C260.621399,712.668091 257.086700,710.791748 257.080963,704.412903 
	C257.054626,675.146484 257.065277,645.879517 257.218964,616.613586 
	C257.281097,604.773804 257.934845,592.937012 257.990112,581.097351 
	C258.373138,499.036407 258.685181,416.975189 258.984039,334.913910 
	C259.074493,310.081879 259.030579,285.249390 259.094055,260.417236 
	C259.111603,253.563431 262.163544,251.631302 268.261047,254.756256 
	C287.797577,264.768677 307.132202,275.186432 326.819916,284.889526 
	C348.733826,295.689758 371.360474,297.517029 394.215210,287.766449 
	C400.958069,284.889740 407.882263,281.993988 413.250549,276.014648 
	C412.126099,275.238770 411.516388,274.691284 410.807709,274.348175 
	C400.820557,269.512634 390.822388,264.699829 380.822113,259.891357 
	C356.085968,247.997437 331.304871,236.195984 306.620728,224.195099 
	C276.860870,209.726532 247.180191,195.094986 217.470718,180.522827 
	C211.719162,177.701721 210.941757,178.136108 210.919357,184.375412 
	C210.617905,268.339020 210.349045,352.302734 210.010818,436.266174 
	C209.719757,508.517059 209.287643,580.767395 209.039139,653.018372 
	C208.890091,696.349426 208.973236,739.681335 208.955292,783.012817 
	C208.954727,784.345825 208.486084,786.048523 209.128342,786.924194 
	C210.064880,788.201111 211.711349,789.212952 213.254944,789.685730 
	C214.078247,789.937927 215.334641,788.847656 216.372391,788.317871 
	C244.605011,773.904724 272.754303,759.325439 301.091156,745.120239 
	C322.171295,734.552856 343.499664,724.481079 364.706848,714.166565 
	C394.148010,699.847473 423.589996,685.529846 453.011658,671.170715 
	C480.930450,657.544922 509.047729,644.301819 536.660400,630.080078 
	C560.873779,617.609253 584.685425,604.324951 608.349609,590.830139 
	C632.841064,576.863464 655.600891,560.480652 673.840698,538.636597 
	C683.149902,527.487915 690.625244,515.197510 694.596252,501.019287 
	C699.251343,484.398560 701.199341,467.550201 699.103577,450.341431 
	C697.442505,436.702240 696.129944,423.004669 693.932495,409.451385 
	C691.775024,396.145325 684.654724,386.970428 670.430359,384.565094 
	C660.146301,382.826111 649.908508,384.224152 640.468628,387.287262 
	C624.419983,392.494751 608.567200,398.711700 593.365112,406.027588 
	C570.330933,417.112579 547.851868,429.365570 525.274963,441.381622 
	C507.547577,450.816711 490.092957,460.763306 472.397736,470.260162 
	C457.923676,478.028229 443.510864,485.980835 428.619507,492.876740 
	C418.302673,497.654236 407.354675,501.230957 396.433838,504.490265 
	C387.737335,507.085663 380.908783,503.151062 376.597534,495.257263 
	C371.878601,486.616852 371.710815,477.610504 372.982574,468.180969 
	C375.445557,449.919800 381.097351,433.276337 398.071930,423.576233 
	C417.961884,412.210083 438.193695,401.412689 458.558563,390.914307 
	C484.999084,377.283966 511.716919,364.191498 538.950989,350.478699 
z"/>
<path fill="#ED9305" opacity="1.000000" stroke="none" 
	d="
M538.633179,350.673096 
	C511.716919,364.191498 484.999084,377.283966 458.558563,390.914307 
	C438.193695,401.412689 417.961884,412.210083 398.071930,423.576233 
	C381.097351,433.276337 375.445557,449.919800 372.982574,468.180969 
	C371.710815,477.610504 371.878601,486.616852 376.597534,495.257263 
	C380.908783,503.151062 387.737335,507.085663 396.433838,504.490265 
	C407.354675,501.230957 418.302673,497.654236 428.619507,492.876740 
	C443.510864,485.980835 457.923676,478.028229 472.397736,470.260162 
	C490.092957,460.763306 507.547577,450.816711 525.274963,441.381622 
	C547.851868,429.365570 570.330933,417.112579 593.365112,406.027588 
	C608.567200,398.711700 624.419983,392.494751 640.468628,387.287262 
	C649.908508,384.224152 660.146301,382.826111 670.430359,384.565094 
	C684.654724,386.970428 691.775024,396.145325 693.932495,409.451385 
	C696.129944,423.004669 697.442505,436.702240 699.103577,450.341431 
	C701.199341,467.550201 699.251343,484.398560 694.596252,501.019287 
	C690.625244,515.197510 683.149902,527.487915 673.840698,538.636597 
	C655.600891,560.480652 632.841064,576.863464 608.349609,590.830139 
	C584.685425,604.324951 560.873779,617.609253 536.660400,630.080078 
	C509.047729,644.301819 480.930450,657.544922 453.011658,671.170715 
	C423.589996,685.529846 394.148010,699.847473 364.706848,714.166565 
	C343.499664,724.481079 322.171295,734.552856 301.091156,745.120239 
	C272.754303,759.325439 244.605011,773.904724 216.372391,788.317871 
	C215.334641,788.847656 214.078247,789.937927 213.254944,789.685730 
	C211.711349,789.212952 210.064880,788.201111 209.128342,786.924194 
	C208.486084,786.048523 208.954727,784.345825 208.955292,783.012817 
	C208.973236,739.681335 208.890091,696.349426 209.039139,653.018372 
	C209.287643,580.767395 209.719757,508.517059 210.010818,436.266174 
	C210.349045,352.302734 210.617905,268.339020 210.919357,184.375412 
	C210.941757,178.136108 211.719162,177.701721 217.470718,180.522827 
	C247.180191,195.094986 276.860870,209.726532 306.620728,224.195099 
	C331.304871,236.195984 356.085968,247.997437 380.822113,259.891357 
	C390.822388,264.699829 400.820557,269.512634 410.807709,274.348175 
	C411.516388,274.691284 412.126099,275.238770 413.250549,276.014648 
	C407.882263,281.993988 400.958069,284.889740 394.215210,287.766449 
	C371.360474,297.517029 348.733826,295.689758 326.819916,284.889526 
	C307.132202,275.186432 287.797577,264.768677 268.261047,254.756256 
	C262.163544,251.631302 259.111603,253.563431 259.094055,260.417236 
	C259.030579,285.249390 259.074493,310.081879 258.984039,334.913910 
	C258.685181,416.975189 258.373138,499.036407 257.990112,581.097351 
	C257.934845,592.937012 257.281097,604.773804 257.218964,616.613586 
	C257.065277,645.879517 257.054626,675.146484 257.080963,704.412903 
	C257.086700,710.791748 260.621399,712.668091 266.309937,709.764709 
	C287.033966,699.187073 307.748566,688.589722 328.540558,678.146729 
	C360.750488,661.968994 392.998810,645.867249 425.273071,629.818115 
	C449.515442,617.762939 473.880035,605.952820 498.088989,593.831543 
	C528.338562,578.685608 558.550842,563.461914 588.639465,547.999817 
	C599.450378,542.444214 609.971558,536.161072 616.218262,525.064514 
	C621.644104,515.426086 625.160278,505.028198 625.663696,493.961243 
	C626.159363,483.063843 626.507568,472.072052 625.630493,461.226013 
	C624.846497,451.531006 618.813416,447.723297 609.446228,450.580780 
	C600.118286,453.426239 590.921143,456.974426 582.089661,461.116302 
	C563.592834,469.791138 545.219421,478.760101 527.077820,488.153778 
	C501.014404,501.649384 475.336456,515.890686 449.246735,529.333740 
	C422.962463,542.877014 396.180756,555.405457 367.974457,564.535339 
	C355.955170,568.425720 343.845856,571.721558 330.907166,571.217529 
	C317.303253,570.687561 309.803375,565.221985 307.145691,551.801941 
	C301.511383,523.351379 301.282410,494.825897 305.601044,466.108032 
	C308.190735,448.887329 314.386597,433.505585 325.041992,419.858246 
	C334.104309,408.251282 344.712891,398.064575 356.987427,390.111481 
	C376.459564,377.494812 396.243042,365.284515 416.470642,353.927917 
	C438.296356,341.674072 460.687317,330.408905 483.013702,319.070801 
	C500.762268,310.057404 518.785645,301.585236 536.685669,292.869965 
	C558.170349,282.409424 579.628662,271.894592 601.144775,261.499207 
	C619.695190,252.536713 638.346130,243.782028 656.889221,234.804535 
	C686.779175,220.333572 716.612061,205.744751 746.479126,191.226547 
	C759.329895,184.979889 772.191467,178.754929 785.094238,172.616867 
	C786.316467,172.035461 787.868896,172.148102 790.023804,171.825302 
	C790.023804,174.425812 790.022705,176.375809 790.023987,178.325790 
	C790.042053,204.824677 789.984436,231.323868 790.093384,257.822388 
	C790.386536,329.122406 790.694580,400.422485 791.114319,471.721832 
	C791.284790,500.687866 791.823425,529.651550 792.081482,558.617310 
	C792.468140,602.015747 792.726990,645.415283 793.093506,688.813904 
	C793.369141,721.447449 793.744202,754.080261 794.039490,786.713684 
	C794.111938,794.723022 793.757385,794.897644 786.234680,792.700134 
	C774.957336,789.405884 764.581421,784.343140 755.242188,777.197998 
	C748.707520,772.198486 744.911133,765.971680 744.868286,757.349426 
	C744.706177,724.715454 744.309387,692.082336 743.893433,659.450256 
	C743.677979,642.542725 743.206116,625.638672 742.908264,608.732056 
	C742.544861,588.099731 742.259705,567.466064 741.908569,546.833496 
	C741.594360,528.368225 741.245667,509.903442 740.894958,491.438782 
	C740.578979,474.805542 740.136169,458.173981 739.932617,441.539429 
	C739.525879,408.306244 739.300842,375.070770 738.883301,341.837738 
	C738.722534,329.037415 738.337891,316.237701 737.882385,303.443878 
	C737.350586,288.507751 736.683960,273.575775 735.962769,258.647461 
	C735.696472,253.134842 733.192078,251.816391 728.080444,254.377472 
	C703.417358,266.734467 678.733704,279.051422 654.137390,291.540344 
	C633.567566,301.984741 613.127991,312.685364 592.594421,323.201508 
	C574.739746,332.345581 556.834106,341.390167 538.633179,350.673096 
z"/>
</svg>